# xmcd
#
# Track frame offsets:
#	150
#	16550
#	33253
#	47441
#	60202
#	74366
#	85292
#	101354
#	115525
#	130539
#	144437
#
# Disc length: 2118 seconds
# Revision: 0
# Processed by: cddbd v1.5.2PL0 Copyright (c) Steve Scherf et al.
# Submitted via: dBpowerAMP V12.0
#
DISCID=7608440b
DTITLE=Lucy Zirins - Unfound
DYEAR=2019
DGENRE=Blues
TTITLE0=One Long Goodbye
TTITLE1=Right Side Of Wrong
TTITLE2=Stuck In Motion
TTITLE3=Time To Go
TTITLE4=Close To The Wire
TTITLE5=Clean Condition
TTITLE6=Hold The Night Back
TTITLE7=Unfound
TTITLE8=The Fall
TTITLE9=Back To Sleep
TTITLE10=Don't Look Back
EXTD=
EXTT0=
EXTT1=
EXTT2=
EXTT3=
EXTT4=
EXTT5=
EXTT6=
EXTT7=
EXTT8=
EXTT9=
EXTT10=
PLAYORDER=
